<svg width="37" height="18" viewBox="0 0 37 18" fill="none" xmlns="http://www.w3.org/2000/svg">
<path d="M34.8155 6.55482C35.6741 6.79808 36.8509 7.13115 36.9879 7.83098C37.0804 8.3175 36.6178 8.78156 36.4808 8.95371C34.6896 10.8249 25.9001 12.6624 22.8765 13.482C20.6189 14.0958 9.8531 17.0673 6.57043 17.8981C6.04655 18.049 5.48929 18.032 4.97535 17.8494C4.29069 17.5762 3.97612 17.0261 3.52831 16.3525C2.44766 14.6871 1.30779 13.0554 0.278952 11.3638C0.161481 11.2138 0.0780513 11.0395 0.0345638 10.8532C-0.00892363 10.667 -0.0114059 10.4733 0.0272927 10.286C0.0718848 10.1439 0.150739 10.0153 0.256747 9.91177C0.485584 9.70908 0.775674 9.59093 1.07955 9.57666C1.38343 9.56238 1.6831 9.65282 1.92954 9.83318C3.11382 10.7201 4.3055 11.5959 5.48607 12.4865C5.56211 12.549 5.65253 12.5911 5.74895 12.6087C5.84536 12.6264 5.94462 12.6191 6.0375 12.5876C8.98093 11.7792 11.9268 10.9808 14.8752 10.1924C15.1824 10.1101 15.2971 10.0502 15.0935 9.70219C13.7094 7.34073 12.3475 4.96804 10.9782 2.59161C10.7643 2.27072 10.6693 1.88381 10.71 1.49905C10.7506 1.11428 10.9242 0.756368 11.2002 0.48837C11.5056 0.215653 11.8885 0.0477519 12.2941 0.00875621C12.6997 -0.0302395 13.107 0.061674 13.4577 0.27131C14.2904 0.855126 15.1083 1.4614 15.9336 2.06018C18.47 3.90145 21.0038 5.74646 23.5352 7.59521C23.6047 7.6473 23.6841 7.68425 23.7684 7.70374C23.8769 7.72647 23.9895 7.71871 24.094 7.68129C24.3383 7.6027 28.0392 6.42384 30.3226 6.18432C31.0621 6.12357 31.8055 6.1336 32.5431 6.21426C33.3104 6.24553 34.0722 6.3597 34.8155 6.55482Z" fill="#EF7340"/>
</svg>
